<?xml version="1.0" encoding="UTF-8"?>
<svg id="Layer_1" data-name="Layer 1" xmlns="http://www.w3.org/2000/svg" viewBox="0 0 615.56 207.66">
  <defs>
    <style>
      .cls-1 {
        fill: #f0c952;
      }

      .cls-1, .cls-2 {
        stroke-width: 0px;
      }

      .cls-2 {
        fill: #003262;
      }
    </style>
  </defs>
  <path class="cls-2" d="M242.31,119.62l-121.16,88.04L0,119.62l44.93-32.65c17.12,23.53,44.89,38.83,76.22,38.83s59.11-15.3,76.23-38.83l44.93,32.65Z"/>
  <path class="cls-1" d="M121.15,0c-17.44,0-31.57,14.13-31.57,31.57s14.13,31.57,31.57,31.57,31.57-14.13,31.57-31.57S138.59,0,121.15,0ZM121.15,47.03c-8.54,0-15.45-6.92-15.45-15.45s6.92-15.45,15.45-15.45,15.45,6.92,15.45,15.45-6.92,15.45-15.45,15.45Z"/>
  <polygon class="cls-1" points="139.05 85.18 167.11 105.39 152.45 116.05 121.16 96.11 121.15 96.11 89.86 116.05 75.2 105.39 103.26 85.18 75.2 64.97 89.86 54.32 121.15 74.25 121.16 74.25 152.45 54.32 167.11 64.97 139.05 85.18"/>
</svg>