<?xml version="1.0" encoding="UTF-8"?>
<svg id="Layer_1" data-name="Layer 1" xmlns="http://www.w3.org/2000/svg" viewBox="0 0 615.29 257.43">
  <defs>
    <style>
      .cls-1 {
        fill: #f0c952;
      }

      .cls-1, .cls-2 {
        stroke-width: 0px;
      }

      .cls-2 {
        fill: #003262;
      }

      .cls-3 {
        fill: #000;
        font-family: Swiss721BT-Black, 'Swis721 Blk BT';
        font-size: 40px;
        font-weight: 800;
      }
    </style>
  </defs>
  <path class="cls-2" d="M271.73,119.62l-121.16,88.04L29.42,119.62l44.93-32.65c17.12,23.53,44.89,38.83,76.22,38.83s59.11-15.3,76.23-38.83l44.93,32.65Z"/>
  <path class="cls-1" d="M150.57,0c-17.44,0-31.57,14.13-31.57,31.57s14.13,31.57,31.57,31.57,31.57-14.13,31.57-31.57S168.01,0,150.57,0ZM150.57,47.03c-8.54,0-15.45-6.92-15.45-15.45s6.92-15.45,15.45-15.45,15.45,6.92,15.45,15.45-6.92,15.45-15.45,15.45Z"/>
  <polygon class="cls-1" points="168.47 85.18 196.53 105.39 181.87 116.05 150.58 96.11 150.57 96.11 119.28 116.05 104.62 105.39 132.68 85.18 104.62 64.97 119.28 54.32 150.57 74.25 150.58 74.25 181.87 54.32 196.53 64.97 168.47 85.18"/>
  <text class="cls-3" transform="translate(0 247.95)"><tspan x="0" y="0">GAMESPLANE</tspan></text>
</svg>