<svg id="Layer_1" data-name="Layer 1" xmlns="http://www.w3.org/2000/svg" viewBox="-1 261.87 303.17 257.98">
  <defs>
    <style>
      .cls-1 {
        font-family: Swiss721BT-Black, 'Swis721 Blk BT';
        font-size: 40px;
        font-weight: 800;
      }

      .cls-1, .cls-2 {
        fill: #231f20;
      }

      .cls-2 {
        stroke-width: 0px;
      }
    </style>
  </defs>
  <path class="cls-2" d="M271.73,381.52l-121.16,88.04-121.15-88.04,44.93-32.65c17.12,23.53,44.89,38.83,76.22,38.83s59.11-15.3,76.23-38.83l44.93,32.65Z"/>
  <path class="cls-2" d="M150.57,261.89c-17.44,0-31.57,14.13-31.57,31.57s14.13,31.57,31.57,31.57,31.57-14.13,31.57-31.57-14.13-31.57-31.57-31.57ZM150.57,308.92c-8.54,0-15.45-6.92-15.45-15.45s6.92-15.45,15.45-15.45,15.45,6.92,15.45,15.45-6.92,15.45-15.45,15.45Z"/>
  <polygon class="cls-2" points="168.47 346.92 196.7 366.89 182.13 377.67 150.67 358 150.66 358 119.54 378.21 104.79 367.67 132.68 347.22 104.45 327.26 119.02 316.48 150.48 336.14 150.49 336.14 181.6 315.94 196.35 326.47 168.47 346.92"/>
  <text class="cls-1" transform="translate(0 509.85)"><tspan x="0" y="0">GAMESPLANE</tspan></text>
</svg>