<svg id="Layer_1" data-name="Layer 1" xmlns="http://www.w3.org/2000/svg" viewBox="0 261.87 242.32 207.7">
  <defs>
    <style>
      .cls-1 {
        fill: #231f20;
        stroke-width: 0px;
      }
    </style>
  </defs>
  <path class="cls-1" d="M242.31,381.52l-121.16,88.04L0,381.52l44.93-32.65c17.12,23.53,44.89,38.83,76.22,38.83s59.11-15.3,76.23-38.83l44.93,32.65Z"/>
  <path class="cls-1" d="M121.15,261.89c-17.44,0-31.57,14.13-31.57,31.57s14.13,31.57,31.57,31.57,31.57-14.13,31.57-31.57-14.13-31.57-31.57-31.57ZM121.15,308.92c-8.54,0-15.45-6.92-15.45-15.45s6.92-15.45,15.45-15.45,15.45,6.92,15.45,15.45-6.92,15.45-15.45,15.45Z"/>
  <polygon class="cls-1" points="139.05 346.92 167.28 366.89 152.71 377.67 121.25 358 121.24 358 90.12 378.21 75.37 367.67 103.26 347.22 75.03 327.26 89.59 316.48 121.05 336.14 121.06 336.14 152.18 315.94 166.93 326.47 139.05 346.92"/>
</svg>